# xmcd CD database file
#
# Track frame offsets:
#	150
#	14752
#	66027
#	83672
#	91827
#	120654
#	132890
#	148102
#
# Disc length: 2680 seconds
#
# Revision: 0
# Processed by: cddbd v1.5PL3 Copyright (c) Steve Scherf et al.
# Submitted via: CDex 1.50
#
DISCID=670a7608
DTITLE=Kistrian Blak and Yggdrasil - Broytingar
DYEAR=2001
DGENRE=Jazz
TTITLE0=Street Music
TTITLE1=Umiaq
TTITLE2=Til Tiden
TTITLE3=Big Bang
TTITLE4=Broytingar
TTITLE5=Avtottao
TTITLE6=Middle of the Road
TTITLE7=Kowato
EXTD=YEAR: 2001
EXTT0=
EXTT1=
EXTT2=
EXTT3=
EXTT4=
EXTT5=
EXTT6=
EXTT7=
PLAYORDER=
